<svg xmlns="http://www.w3.org/2000/svg">
  <style>:root svg:not(:target) { display: none }</style>
  <svg id="social__link-vk" xmlns="http://www.w3.org/2000/svg" width="28" height="22"
    viewBox="0 0 28 22" fill="#666666">
    <g>
      <path
        d="M1 5.339c0-.855.515-1.316 1.545-1.383l3.97.025a.52.52 0 0 1 .533.377c.409 1.257.866 2.343 1.372 3.257.506.913 1.168 1.965 1.985 3.156.071.15.187.226.346.226.125 0 .223-.059.293-.176l.08-.277.027-4.35c0-.302-.075-.503-.226-.604-.151-.1-.431-.176-.84-.226-.32-.05-.48-.235-.48-.553 0-.067.01-.118.027-.151.373-1.09 1.44-1.635 3.198-1.635L14.322 3c.675 0 1.234.16 1.678.478.444.318.666.821.666 1.509v5.708c.125.084.24.126.347.126.266 0 .497-.15.692-.453 1.954-2.582 3.011-4.308 3.17-5.18 0-.017.019-.059.054-.126.125-.251.329-.47.613-.654.284-.184.533-.31.746-.377a.554.554 0 0 1 .24-.05h4.13l.266.025c.355 0 .63.16.826.478.07.1.12.21.146.327.027.117.045.234.054.352.009.117.013.184.013.2v.177c-.124.687-.44 1.42-.946 2.2-.506.78-1.15 1.622-1.931 2.528-.782.905-1.27 1.5-1.466 1.785-.16.201-.24.386-.24.553 0 .135.071.286.213.453l3.89 4.627c.213.269.32.562.32.88 0 .386-.16.705-.48.956-.32.252-.701.394-1.145.428l-.453.025h-4.05a.855.855 0 0 0-.106.012.862.862 0 0 1-.107.013c-.39 0-.755-.16-1.092-.478-.125-.134-.96-1.123-2.505-2.967a1.387 1.387 0 0 0-.373-.327c-.07.268-.164.654-.28 1.157-.115.503-.2.863-.253 1.081l-.08.427c-.177.587-.55.94-1.119 1.057l-.373.025h-2.61c-1.475 0-2.945-.637-4.41-1.911-1.466-1.275-2.784-2.922-3.957-4.942-1.172-2.02-2.264-4.372-3.277-7.054A1.916 1.916 0 0 1 1 5.338Zm16.013 6.513c-.373 0-.71-.096-1.013-.29-.302-.192-.453-.456-.453-.791V4.987c0-.336-.089-.575-.266-.717-.178-.143-.489-.214-.933-.214l-1.518.05c-.764 0-1.341.126-1.732.378.781.352 1.172.922 1.172 1.71v4.426a1.5 1.5 0 0 1-.533 1.044 1.59 1.59 0 0 1-1.066.414c-.532 0-.94-.243-1.225-.729C8.06 9.371 7.03 7.493 6.356 5.716l-.24-.654-3.544-.025c-.231 0-.36.013-.386.038-.027.025-.04.096-.04.213 0 .151.017.31.053.478l.56 1.409c1.491 3.638 3.112 6.505 4.862 8.6 1.75 2.096 3.468 3.144 5.155 3.144h2.665c.106 0 .186-.03.24-.088.053-.06.097-.172.133-.34l.053-.251.506-2.213c.142-.302.267-.503.373-.604a.975.975 0 0 1 .693-.277c.426 0 .861.243 1.305.73l2.265 2.716c.142.218.293.327.453.327h4.396c.533 0 .8-.126.8-.378a.466.466 0 0 0-.08-.251l-3.864-4.552c-.302-.352-.453-.73-.453-1.131 0-.403.142-.788.427-1.157.23-.336.679-.893 1.345-1.673a37.63 37.63 0 0 0 1.745-2.187c.498-.68.826-1.296.986-1.849l.08-.327a.371.371 0 0 1-.027-.163.574.574 0 0 0-.026-.189h-4.183c-.267.1-.48.252-.64.453l-.16.478c-.444 1.156-1.607 2.942-3.49 5.356a1.892 1.892 0 0 1-1.305.503Z" />
    </g>
  </svg>
  <svg id="social__link-telegram" xmlns="http://www.w3.org/2000/svg" width="28" height="22"
    viewBox="0 0 28 22" fill="#666666">
    <g>
      <path fill-rule="evenodd"
        d="M23.46 3.153c.18.15.265.382.227.611l-2.626 15.757a.657.657 0 0 1-1.012.439l-7.878-5.253a.657.657 0 0 1-.149-.956l2.611-3.263-4.36 2.906a.657.657 0 0 1-.658.041L4.363 10.81a.657.657 0 0 1 .073-1.205l18.383-6.566a.657.657 0 0 1 .642.115Zm-17.134 7.17 3.536 1.768 7.561-5.041a.656.656 0 0 1 .877.956l-4.805 6.006 6.438 4.292L22.208 4.65 6.326 10.323Z"
        clip-rule="evenodd" />
    </g>
  </svg>
  <svg id="social__link-youtube" xmlns="http://www.w3.org/2000/svg" width="28" height="22"
    viewBox="0 0 28 22" fill="#666666">
    <g>
      <path
        d="m17.85 10.793-5.236-3.491a.655.655 0 0 0-1.014.545v6.982a.654.654 0 0 0 1.014.546l5.237-3.491a.655.655 0 0 0 0-1.091Zm-4.94 2.814V9.07l3.403 2.27-3.404 2.268Zm12.48-8.563a2.4 2.4 0 0 0-1.452-1.637C20.218 1.978 14.251 2 14 2c-.25 0-6.218-.022-9.938 1.407A2.4 2.4 0 0 0 2.61 5.044C2.327 6.113 2 8.076 2 11.338c0 3.262.327 5.226.61 6.295a2.4 2.4 0 0 0 1.452 1.636c3.72 1.43 9.687 1.407 9.938 1.407h.076c.753 0 6.317-.043 9.862-1.407a2.4 2.4 0 0 0 1.451-1.636c.284-1.07.611-3.033.611-6.295s-.327-5.225-.61-6.294Zm-1.266 12.261a1.09 1.09 0 0 1-.655.742c-3.49 1.342-9.404 1.32-9.469 1.32-.066 0-5.978.022-9.47-1.32a1.09 1.09 0 0 1-.654-.742c-.261-1.003-.567-2.847-.567-5.967 0-3.12.306-4.963.567-5.967a1.09 1.09 0 0 1 .655-.742C8.02 3.287 13.935 3.31 14 3.31c.066 0 5.978-.022 9.47 1.32a1.092 1.092 0 0 1 .654.742c.262 1.004.567 2.847.567 5.967 0 3.12-.305 4.964-.567 5.967Z" />
    </g>
  </svg>
  <svg id="copyright_icon" width="27" height="34" viewBox="0 0 27 34" fill="none"
    xmlns="http://www.w3.org/2000/svg">
    <g clip-path="url(#clip0_98456_344)">
      <path id="html academy "
        d="M13.6426 0.0157537L13.5 0L0 1.40733V26.0129L13.5 34L27 26.0129V1.40733L13.6426 0.0157537ZM25.2344 25.0151L13.5 31.9573L1.76561 25.0151V14.9293L13.4507 21.8451L13.4701 23.0984L5.45351 18.3548L5.44295 19.5801L13.4894 24.3885L13.5088 25.675L5.46408 20.9174L5.45351 22.1427L13.5 26.9511L21.6239 22.1182V20.8929V16.909L25.2432 14.7595L25.2344 25.0151ZM25.2344 13.4519L22.0147 15.3319L20.5325 16.2071L13.4666 12.0201L13.456 13.2454L19.4957 16.818L19.4429 16.8495L19.3126 16.9247L18.4536 17.4166L13.4666 14.4689L13.456 15.6942L17.3921 18.0222L16.4591 18.6314L16.438 18.6436L13.4666 16.902L13.456 18.1273L15.4029 19.2615L13.4155 20.4483L1.7973 13.5762L13.4349 6.61831L25.2344 13.4519ZM25.2344 12.2266L13.4401 5.31075L1.76561 12.2196V2.9897L13.5 1.76442L25.2344 2.9897V12.2266Z"
        fill="#666666" />
    </g>
    <defs>
      <rect width="27" height="34" fill="white" />
    </defs>
  </svg>
  <svg aria-hidden="true" id="cat-slim" viewBox="0 0 36 50" fill="none"
    xmlns="http://www.w3.org/2000/svg">
    <g clip-path="url(#clip0_135_3256)">
      <path
        d="M28.2034 0H28.008C27.6778 0.187081 27.415 0.473924 27.2571 0.819588C26.968 1.37738 26.7453 1.96735 26.5937 2.57732C26.5612 2.76073 26.4688 2.92811 26.331 3.05315C26.1932 3.17818 26.0179 3.25377 25.8326 3.26804C25.2658 3.36597 24.7288 3.59243 24.2626 3.93012C23.7965 4.26781 23.4135 4.7078 23.1429 5.21649C22.7708 5.87697 22.4526 6.5665 22.1914 7.27835C21.4611 9.17526 20.9006 11.134 20.2114 13.0464C19.8874 13.9175 19.872 13.9175 18.8949 13.9175C17.7274 13.9175 17.8097 13.7371 17.7943 15.0258C17.7943 15.433 17.9177 15.6392 18.3497 15.6186C18.4834 15.6186 18.684 15.5515 18.7354 15.7268C18.7869 15.9021 18.612 15.9794 18.5091 16.0825C17.8994 16.7029 17.1276 17.1388 16.2823 17.3402C15.3051 17.6031 14.3074 17.8093 13.356 18.1289C10.9131 18.9485 8.65543 20.0928 6.89657 22.0309C5.86814 23.2347 5.04455 24.6001 4.45886 26.0722C2.57143 30.5258 1.656 35.2165 0.946286 39.9536C0.612 42.1753 0.375429 44.4072 0.195429 46.6546C0.102857 47.7577 0 48.8763 0 50H17.1411C17.1696 49.7731 17.1283 49.5429 17.0229 49.3402C16.858 48.9289 16.5901 48.5672 16.2451 48.29C15.9 48.0128 15.4895 47.8295 15.0531 47.7577C14.6931 47.6753 14.652 47.567 14.8731 47.2835C15.2338 46.801 15.5103 46.2607 15.6909 45.6856C16.5291 43.2062 16.8531 40.6186 17.2594 38.0567C17.4889 36.0999 18.0894 34.2051 19.0286 32.4742C19.7611 31.2002 20.7382 30.0842 21.9034 29.1907C22.3303 28.866 22.3457 28.866 22.4177 29.4175C22.4691 29.7835 22.4794 30.1598 22.5051 30.5309C22.6595 32.9662 22.6285 35.4097 22.4126 37.8402C22.2184 39.7242 22.1926 41.6217 22.3354 43.5103C22.5399 45.7029 22.9304 47.8739 23.5029 50H30.3429C30.2536 49.442 29.9973 48.9243 29.6078 48.5156C29.2184 48.1069 28.7143 47.8264 28.1623 47.7113C27.5177 47.6087 26.8587 47.6438 26.2286 47.8144C25.92 47.8866 25.7914 47.8144 25.7657 47.4794C25.5529 44.7505 25.7261 42.0051 26.28 39.3247C26.966 36.2304 27.4912 33.1025 27.8537 29.9536C27.9887 28.6819 28.3881 27.4528 29.0263 26.3454C29.6383 25.2526 30.1731 24.1186 30.7749 23.0206C31.0138 22.6214 31.1575 22.1723 31.195 21.7083C31.2325 21.2443 31.1626 20.7779 30.9909 20.3454C30.852 19.9794 30.7183 19.6082 30.5486 19.2577C30.0343 18.2526 29.52 17.2577 29.0469 16.2423C28.7949 15.7268 28.8514 15.6649 29.412 15.6495C30.2503 15.6495 30.2503 15.6495 30.2657 14.8041C30.2657 14.6907 30.2657 14.5773 30.2657 14.4639C30.2657 14.1082 30.132 13.9124 29.7514 13.9485C29.4943 13.9485 29.2371 13.9485 28.9697 13.9485C28.6149 13.9485 28.512 13.799 28.5994 13.433C28.7729 12.838 29.1142 12.306 29.5823 11.9009C30.0503 11.4958 30.6252 11.2349 31.2377 11.1495C32.3772 11.0505 33.5251 11.1252 34.6423 11.3711C34.7712 11.4118 34.9109 11.4001 35.0312 11.3383C35.1515 11.2766 35.2427 11.1699 35.2851 11.0412C35.4909 10.5258 35.7171 10.0103 35.9486 9.49484C36.001 9.40339 36.0242 9.29801 36.015 9.19293C36.0058 9.08785 35.9647 8.98812 35.8971 8.90722C34.2514 6.81443 32.4669 4.86082 30.0343 3.60825C29.9168 3.55754 29.8138 3.47814 29.7347 3.3773C29.6557 3.27646 29.6031 3.15738 29.5817 3.03093C29.444 2.29408 29.225 1.57487 28.9286 0.886598C28.7895 0.519904 28.5349 0.20865 28.2034 0V0Z"
        fill="black" />
    </g>
    <defs>
      <rect width="36" height="50" fill="white" />
    </defs>
  </svg>
  <svg aria-hidden="true" id="cat-pro" xmlns="http://www.w3.org/2000/svg" viewBox="0 0 134 56"
    fill="none">
    <path
      d="M123.118 5.75685C124.273 3.91994 125.807 2.35146 127.618 1.15685C128.618 0.456854 129.218 0.456854 129.818 1.75685C130.618 3.65685 131.318 5.65685 130.718 7.75685C130.609 8.11302 130.588 8.49045 130.658 8.85639C130.728 9.22234 130.886 9.56575 131.118 9.85685C131.718 10.6569 132.218 11.4569 132.718 12.1569C133.399 13.0206 133.84 14.0482 133.998 15.1364C134.156 16.2246 134.025 17.3352 133.618 18.3569C133.251 19.3487 133.182 20.4261 133.418 21.4569C133.618 22.4469 133.618 23.4668 133.418 24.4569C133.337 25.1983 133.037 25.8987 132.556 26.4688C132.075 27.0388 131.435 27.4524 130.718 27.6569C129.439 27.9002 128.298 28.6137 127.518 29.6569C127.424 29.8105 127.291 29.9372 127.134 30.0247C126.976 30.1123 126.799 30.1578 126.618 30.1569C125.418 30.3569 122.418 27.6569 122.418 26.4569V25.8569C122.518 22.2569 122.318 21.9569 119.018 20.4569C118.328 20.2133 117.709 19.8007 117.218 19.2569C116.618 18.4569 115.818 18.5569 114.918 18.8569C114.018 19.1569 113.518 19.7569 113.618 20.7569C113.92 23.1777 114.02 25.6194 113.918 28.0569C113.925 28.335 113.993 28.6083 114.118 28.8569C117.218 33.3569 118.418 38.6569 119.918 43.7569C121.118 47.6569 123.318 49.7569 127.318 50.0569C127.958 50.1079 128.594 50.2082 129.218 50.3569C130.04 50.4889 130.803 50.8644 131.41 51.4349C132.016 52.0054 132.437 52.7445 132.618 53.5569C133.318 55.6569 132.918 56.1569 130.818 56.1569H124.318C123.477 56.1994 122.652 55.9124 122.018 55.3569C121.006 54.5027 119.856 53.8265 118.618 53.3569C117.249 52.8516 116.065 51.9455 115.218 50.7569C114.047 49.1203 112.706 47.612 111.218 46.2569C108.418 43.3569 105.418 40.5569 102.818 37.5569C100.839 35.5127 99.6973 32.8012 99.6182 29.9569C99.6182 29.0569 99.4182 28.6569 98.4182 29.0569C98.1188 29.2468 97.7728 29.3506 97.4182 29.3569C94.6182 29.3569 93.2182 31.0569 92.2182 33.5569C91.3182 35.6569 90.1182 37.6569 89.0182 39.7569C88.3945 41.0714 88.0538 42.5023 88.0182 43.9569C88.0182 46.3569 88.6182 47.1569 90.8182 47.9569C92.2182 48.4569 93.5182 48.9569 94.2182 50.3569C95.0182 51.9569 94.8182 52.3569 93.1182 52.4569H86.3182C85.9262 52.4957 85.5319 52.4104 85.191 52.213C84.8501 52.0156 84.5798 51.7162 84.4182 51.3569L82.6182 48.3569C82.0876 47.5741 81.7479 46.6779 81.6264 45.7401C81.5048 44.8023 81.6048 43.849 81.9182 42.9569C82.351 41.2204 82.3852 39.4084 82.0182 37.6569C81.7662 36.437 81.7879 35.1764 82.0819 33.9659C82.3758 32.7554 82.9347 31.6252 83.7182 30.6569C84.3182 29.9569 84.3182 29.6569 83.3182 29.4569C79.2291 28.5882 75.2649 27.2108 71.5182 25.3569C71.4917 25.3569 71.4663 25.3463 71.4475 25.3276C71.4288 25.3088 71.4182 25.2834 71.4182 25.2569C68.2182 24.0569 67.6182 24.2569 66.7182 27.5569C65.9182 30.3569 65.1182 33.1569 64.5182 36.0569C63.8182 39.2569 64.6182 42.2569 65.6182 45.2569C66.0182 46.4569 67.2182 46.3569 68.1182 46.6569C70.1182 47.2569 71.8182 48.0569 72.6182 50.1569C73.3182 51.7569 73.2182 51.9569 71.5182 51.9569C69.8182 51.9569 68.1182 51.8569 66.3182 51.9569C64.7993 51.9844 63.3169 51.4902 62.1182 50.5569C57.3182 47.3569 55.9182 42.4569 55.5182 37.1569C55.3182 33.8569 53.5182 31.2569 51.4182 28.7569C51.0182 28.2569 50.6182 28.0569 50.0182 28.4569C47.8717 29.6404 45.6307 30.6439 43.3182 31.4569C38.4925 33.1608 34.2579 36.2153 31.1182 40.2569C29.9459 41.7318 29.1866 43.4919 28.9182 45.3569C28.6182 47.1569 29.1182 47.9569 30.9182 48.4569C32.7182 48.9569 33.6182 49.9569 33.8182 51.8569C33.9182 52.6569 33.6182 53.0569 32.8182 53.0569H24.7182C24.4531 53.0381 24.1965 52.9555 23.9702 52.8162C23.7438 52.6769 23.5545 52.485 23.4182 52.2569C22.1621 50.7016 21.4899 48.7558 21.5182 46.7569C21.4658 43.3018 21.7673 39.8505 22.4182 36.4569C22.5517 35.4405 22.9311 34.4721 23.5236 33.6357C24.1161 32.7992 24.9038 32.12 25.8182 31.6569C31.7182 28.8569 34.8182 23.5569 37.6182 18.0569C38.2182 16.9569 37.7182 16.7569 36.7182 16.8569C33.9196 17.2454 31.2679 18.3474 29.0182 20.0569C26.0724 22.2057 23.2975 24.5795 20.7182 27.1569C17.9679 29.9505 14.3209 31.6855 10.4182 32.0569C3.11823 32.4569 -0.28177 28.3569 0.0182299 21.7569C0.0852924 19.5065 0.933877 17.3496 2.41823 15.6569C2.93425 14.9879 3.63796 14.4878 4.4395 14.2207C5.24103 13.9535 6.10401 13.9313 6.91823 14.1569C8.41823 14.5569 8.81823 15.3569 8.21823 16.8569C7.91823 17.4569 7.51823 17.9569 7.21823 18.5569C6.78683 19.1698 6.44975 19.844 6.21823 20.5569C5.11823 23.5569 6.61823 25.6569 9.71823 25.9569C13.0182 26.2569 15.7182 24.8569 18.2182 22.8569C21.2302 20.4451 23.9189 17.6555 26.2182 14.5569C27.9375 12.2943 30.1023 10.4081 32.5791 9.01498C35.0558 7.62182 37.7918 6.75118 40.6182 6.45685C42.9182 6.15685 44.9182 5.15685 47.1182 4.55685C51.2327 3.30246 55.5172 2.69521 59.8182 2.75685C61.8103 2.83982 63.7948 2.46345 65.6182 1.65685C70.5182 -0.343146 75.6182 -0.343146 80.7182 0.656854C84.7182 1.45685 88.7182 2.45685 92.6182 3.45685C94.9392 3.88933 97.3257 3.82114 99.6182 3.25685C104.007 2.14439 108.496 1.47438 113.018 1.25685C115.981 1.11272 118.933 1.69639 121.618 2.95685C123.618 3.85685 123.618 3.85685 123.118 5.75685Z"
      fill="black" />
  </svg>
  <svg id="icon__arrow" width="32" height="12" viewBox="0 0 32 12" fill="none"
    xmlns="http://www.w3.org/2000/svg">
    <g id="icon__arrow">
      <g id="icon">
        <line id="Line 1" y1="6" x2="18" y2="6" stroke="black" stroke-width="2" />
        <path id="Polygon 1" d="M24 6L17.25 11.1962L17.25 0.803848L24 6Z" fill="black" />
      </g>
    </g>
  </svg>
  <svg id="icon__arrow-long" width="32" height="12" viewBox="0 0 32 12" fill="none"
    xmlns="http://www.w3.org/2000/svg">
    <line y1="6" x2="26" y2="6" stroke="black" stroke-width="2" />
    <path d="M32 6L25.25 11.1962L25.25 0.803848L32 6Z" fill="black" />
  </svg>
  <svg aria-hidden="true" id="icon__leaf" width="30" height="32" viewBox="0 0 30 32" fill="none"
    xmlns="http://www.w3.org/2000/svg">
    <g clip-path="url(#clip0_130_911)">
      <path
        d="M27.8438 2.767C27.7434 2.317 27.3647 2 26.9325 2C26.9306 2 26.9288 2 26.9269 2C21.9891 2.033 9.98156 2.916 5.13375 10.38C2.61562 14.258 2.39906 19.293 4.48969 25.345C4.50562 25.392 4.53844 25.424 4.56 25.467C3.81281 27.44 3.52312 28.753 3.51562 28.79C3.40687 29.33 3.73031 29.862 4.23656 29.978C4.30219 29.993 4.36781 30 4.43344 30C4.86562 30 5.25469 29.679 5.34937 29.21C5.36906 29.108 7.75781 18.837 16.2028 12.832C16.6341 12.526 16.7503 11.905 16.4625 11.445C16.1747 10.985 15.5934 10.86 15.1622 11.168C10.3734 14.573 7.42406 19.176 5.68969 22.824C4.44844 18.246 4.77375 14.447 6.67594 11.519C10.4194 5.755 19.2984 4.365 24.6581 4.071C23.505 5.872 22.245 9.174 22.245 15C22.245 18.12 21.4153 20.522 19.7803 22.14C17.1591 24.731 12.9009 24.974 9.78656 24.724C9.26906 24.679 8.82 25.095 8.78062 25.646C8.74125 26.196 9.12844 26.676 9.64406 26.718C10.2675 26.769 10.9331 26.8 11.625 26.8C14.7956 26.8 18.4941 26.137 21.0544 23.606C23.0888 21.595 24.12 18.7 24.12 15.001C24.12 5.902 27.3356 3.905 27.3516 3.896C27.7416 3.687 27.9459 3.219 27.8438 2.767Z"
        fill="white" />
    </g>
    <defs>
      <clipPath id="clip0_130_911">
        <rect width="30" height="32" fill="white" />
      </clipPath>
    </defs>
  </svg>
  <svg aria-hidden="true" id="icon__water" width="27" height="29" viewBox="0 0 27 29" fill="none"
    xmlns="http://www.w3.org/2000/svg">
    <path
      d="M11.375 0C9.74375 0 8.475 1.35937 8.475 3.08125C8.475 4.80312 9.74375 6.1625 11.375 6.1625C13.0063 6.1625 14.275 4.80312 14.275 3.08125C14.275 1.35937 13.0063 0 11.375 0ZM11.375 1.17812C12.3719 1.17812 13.0969 2.02094 13.0969 3.08125C13.0969 4.07812 12.3084 4.98438 11.375 4.98438C10.3781 4.98438 9.65313 4.14156 9.65313 3.08125C9.65313 2.08437 10.4325 1.17812 11.375 1.17812ZM0.5 24.7406C0.5 25.9188 0.907813 26.9156 1.85938 27.7313C2.85625 28.5831 4.03438 28.5106 4.03438 28.5106H23.0656C23.845 28.5106 24.8781 28.13 25.6937 27.0606C26.5366 26.0638 26.4822 24.7044 26.4822 24.7044V7.48563C26.4822 7.05063 26.3734 6.8875 25.7391 6.8875C25.1047 6.8875 25.0503 7.15938 25.0503 7.47656V24.6953C25.0322 24.9944 24.9778 25.7828 24.3072 26.4172C23.5731 27.0425 22.8572 26.9609 22.8572 26.9609C22.8572 26.9609 4.73219 26.9609 3.82594 26.9338C3.48156 26.8703 2.91969 26.7434 2.37594 26.0275C1.86844 25.3025 1.96812 24.3962 1.96812 24.3962V7.1775C1.96812 6.71531 1.7325 6.54313 1.24313 6.54313C0.75375 6.54313 0.5 6.71531 0.5 7.12313V24.7406ZM16.8125 8.42813C15.725 8.66375 14.6375 8.80875 12.5531 10.7844C10.4688 12.7781 8.92813 12.6875 7.3875 12.5969C5.84688 12.5063 4.21563 11.0563 3.94375 10.6938C3.60844 10.3403 3.0375 10.5759 2.85625 10.8116C2.70219 11.0472 2.70219 11.455 2.965 11.8084C4.23375 12.9866 5.41188 13.8928 7.6775 14.0741C9.94312 14.2916 12.1181 13.2675 13.5681 11.8084C15.0181 10.3584 15.7431 10.0866 16.8306 9.90531C19.4587 9.48844 20.9994 10.5216 21.9056 11.1741C22.9025 12.2616 23.1744 11.9534 23.4462 11.6453C23.99 10.9294 23.2197 10.3766 22.3588 9.74219C20.5463 8.56406 18.8244 8.11094 16.8306 8.47344L16.8125 8.42813ZM7.75 15.5875C6.57188 15.5875 5.66562 16.5844 5.66562 17.8531C5.66562 19.1219 6.57188 20.1188 7.75 20.1188C8.92813 20.1188 9.83438 19.1219 9.83438 17.8531C9.83438 16.5844 8.92813 15.5875 7.75 15.5875ZM19.5312 16.3669C17.9906 16.3669 16.7219 17.7262 16.7219 19.3575C16.7219 20.9888 17.9906 22.3481 19.5312 22.3481C21.0719 22.3481 22.3406 20.9888 22.3406 19.3575C22.3406 17.7262 21.0719 16.3669 19.5312 16.3669ZM19.5312 17.8169C20.3288 17.8169 20.9813 18.5147 20.9813 19.3575C20.9813 20.2184 20.3288 20.8981 19.5312 20.8981C18.7337 20.8981 18.0812 20.2003 18.0812 19.3575C18.0812 18.4966 18.7337 17.8169 19.5312 17.8169Z"
      fill="white" />
  </svg>
  <svg aria-hidden="true" id="icon__food" width="26" height="30" viewBox="0 0 26 30" fill="none"
    xmlns="http://www.w3.org/2000/svg">
    <path fill-rule="evenodd" clip-rule="evenodd"
      d="M19.1173 0.0761497C19.491 -0.0786313 19.9211 0.00692445 20.2071 0.292922C21.1156 1.20142 22.3038 3.17065 23.2659 6.21082C24.2373 9.28039 25 13.5081 25 19C25 19.5523 24.5523 20 24 20H20.5V29C20.5 29.5523 20.0523 30 19.5 30C18.9477 30 18.5 29.5523 18.5 29V1.00003C18.5 0.595567 18.7436 0.230931 19.1173 0.0761497ZM20.5 18H22.9912C22.9053 13.1836 22.2051 9.48755 21.3591 6.81424C21.0807 5.93457 20.7885 5.1715 20.5 4.51895V18Z"
      fill="white" />
    <path fill-rule="evenodd" clip-rule="evenodd"
      d="M6.5 0C7.05228 0 7.5 0.447715 7.5 1V29C7.5 29.5523 7.05228 30 6.5 30C5.94772 30 5.5 29.5523 5.5 29V1C5.5 0.447715 5.94772 0 6.5 0Z"
      fill="white" />
    <path fill-rule="evenodd" clip-rule="evenodd"
      d="M2 0C2.55228 0 3 0.447715 3 1V6.5C3 7.05686 3.19203 7.81518 3.70088 8.41656C4.18001 8.98281 5.01446 9.5 6.49993 9.5C7.05221 9.5 7.49993 9.94771 7.49993 10.5C7.49993 11.0523 7.05221 11.5 6.49993 11.5C4.48547 11.5 3.06995 10.7672 2.1741 9.70844C1.30797 8.68482 1 7.44314 1 6.5V1C1 0.447715 1.44772 0 2 0Z"
      fill="white" />
    <path fill-rule="evenodd" clip-rule="evenodd"
      d="M11 0C10.4477 0 10 0.447715 10 1V6.5C10 7.05686 9.80797 7.81518 9.29912 8.41656C8.81999 8.98281 7.9854 9.5 6.49993 9.5C5.94765 9.5 5.50007 9.94771 5.50007 10.5C5.50007 11.0523 5.94765 11.5 6.49993 11.5C8.51439 11.5 9.93005 10.7672 10.8259 9.70844C11.692 8.68482 12 7.44314 12 6.5V1C12 0.447715 11.5523 0 11 0Z"
      fill="white" />
  </svg>
  <svg aria-hidden="true" id="icon__time" width="27" height="31" viewBox="0 0 27 31" fill="none"
    xmlns="http://www.w3.org/2000/svg">
    <path
      d="M6.12057 0C5.0538 0 5.0538 1.5831 6.12057 1.5831H12.7878V3.18731C5.96055 3.62002 0.562721 9.41417 0.562721 16.4854C0.562721 20.4959 2.31222 24.1159 5.07514 26.5539C5.55518 26.976 5.61919 27.7254 5.18181 28.1897L3.64567 29.7412C2.89894 30.4272 4.00837 31.4931 4.68043 30.7438L6.68595 28.7069C7.03798 28.3692 7.5607 28.2847 7.99807 28.4958C9.72279 29.3397 11.6191 29.784 13.5432 29.795C15.4673 29.8059 17.3687 29.3833 19.1031 28.5591C19.5298 28.348 20.0632 28.4325 20.4045 28.7702L22.3461 30.7438C23.0288 31.377 24.0102 30.4272 23.3915 29.7412L21.9407 28.2636C21.4926 27.8098 21.5567 27.0605 22.0474 26.6277C23.5031 25.3585 24.6674 23.7959 25.4623 22.0447C26.2571 20.2936 26.6641 18.3944 26.6558 16.4748C26.6558 9.40362 21.226 3.59891 14.388 3.18731V1.5831H21.0553C22.122 1.5831 22.122 0 21.0553 0H6.12057ZM2.00285 16.4748C2.00285 9.94187 7.198 4.65431 13.6093 4.65431C20.0098 4.65431 25.205 9.94187 25.205 16.4748C25.205 23.0183 20.0098 28.3164 13.6093 28.3164C7.20867 28.3164 2.00285 23.0183 2.00285 16.4748ZM12.7985 8.37988C12.7985 7.28226 14.4627 7.28226 14.4627 8.37988V17.0131C14.4627 17.237 14.3728 17.4517 14.2127 17.6101C14.0527 17.7684 13.8356 17.8574 13.6093 17.8574C13.3961 17.8574 13.1915 17.7743 13.0397 17.6262C12.888 17.478 12.8013 17.2767 12.7985 17.0658V8.37988ZM7.80605 10.9973C8.11444 10.9973 8.4102 10.8761 8.62826 10.6603C8.84632 10.4446 8.96883 10.152 8.96883 9.84688C8.96883 9.54178 8.84632 9.24918 8.62826 9.03344C8.4102 8.8177 8.11444 8.6965 7.80605 8.6965C7.51825 8.72386 7.25108 8.85633 7.05666 9.06805C6.86224 9.27977 6.75453 9.55556 6.75453 9.84161C6.75453 10.1277 6.86224 10.4034 7.05666 10.6152C7.25108 10.8269 7.51825 10.9593 7.80605 10.9867V10.9973ZM19.4018 10.9973C19.7102 10.9973 20.0059 10.8761 20.224 10.6603C20.4421 10.4446 20.5646 10.152 20.5646 9.84688C20.5646 9.54178 20.4421 9.24918 20.224 9.03344C20.0059 8.8177 19.7102 8.6965 19.4018 8.6965C19.114 8.72386 18.8468 8.85633 18.6524 9.06805C18.458 9.27977 18.3503 9.55556 18.3503 9.84161C18.3503 10.1277 18.458 10.4034 18.6524 10.6152C18.8468 10.8269 19.114 10.9593 19.4018 10.9867V10.9973ZM8.96883 23.5882C8.96883 25.1185 6.64328 25.1185 6.64328 23.5882C6.64328 22.0579 8.96883 22.0579 8.96883 23.5882ZM13.6093 27.0288C13.7706 27.0441 13.9334 27.0259 14.0872 26.9754C14.241 26.9248 14.3824 26.843 14.5024 26.7352C14.6223 26.6273 14.7182 26.4959 14.7838 26.3493C14.8494 26.2026 14.8833 26.044 14.8833 25.8837C14.8833 25.7233 14.8494 25.5648 14.7838 25.4181C14.7182 25.2715 14.6223 25.14 14.5024 25.0322C14.3824 24.9244 14.241 24.8426 14.0872 24.792C13.9334 24.7414 13.7706 24.7232 13.6093 24.7386C13.3215 24.7659 13.0543 24.8984 12.8599 25.1101C12.6654 25.3219 12.5577 25.5976 12.5577 25.8837C12.5577 26.1697 12.6654 26.4455 12.8599 26.6572C13.0543 26.869 13.3215 27.0014 13.6093 27.0288ZM5.49117 16.6437C5.50668 16.8033 5.48829 16.9643 5.43717 17.1165C5.38606 17.2687 5.30336 17.4086 5.19437 17.5273C5.08539 17.646 4.95252 17.7408 4.80431 17.8057C4.6561 17.8706 4.49581 17.9041 4.33373 17.9041C4.17166 17.9041 4.01137 17.8706 3.86316 17.8057C3.71494 17.7408 3.58208 17.646 3.4731 17.5273C3.36411 17.4086 3.28141 17.2687 3.23029 17.1165C3.17918 16.9643 3.16079 16.8033 3.17629 16.6437C3.20396 16.3589 3.33785 16.0946 3.55185 15.9023C3.76585 15.7099 4.04461 15.6033 4.33373 15.6033C4.62286 15.6033 4.90162 15.7099 5.11562 15.9023C5.32962 16.0946 5.46351 16.3589 5.49117 16.6437ZM22.8794 17.794C23.0408 17.8094 23.2036 17.7912 23.3574 17.7406C23.5112 17.6901 23.6526 17.6082 23.7726 17.5004C23.8925 17.3926 23.9884 17.2611 24.054 17.1145C24.1196 16.9679 24.1535 16.8093 24.1535 16.6489C24.1535 16.4886 24.1196 16.33 24.054 16.1834C23.9884 16.0367 23.8925 15.9053 23.7726 15.7975C23.6526 15.6896 23.5112 15.6078 23.3574 15.5573C23.2036 15.5067 23.0408 15.4885 22.8794 15.5038C22.5916 15.5312 22.3245 15.6637 22.13 15.8754C21.9356 16.0871 21.8279 16.3629 21.8279 16.6489C21.8279 16.935 21.9356 17.2108 22.13 17.4225C22.3245 17.6342 22.5916 17.7667 22.8794 17.794ZM20.5646 23.5987C20.5646 25.1185 18.239 25.1185 18.239 23.5882C18.239 22.0579 20.5646 22.0579 20.5646 23.5882V23.5987Z"
      fill="white" />
  </svg>
  <svg id="toggle" width="24" height="24" viewBox="0 0 24 24" fill="none"
    xmlns="http://www.w3.org/2000/svg">
    <line y1="3" x2="24" y2="3" stroke="black" stroke-width="2" />
    <line y1="11" x2="24" y2="11" stroke="black" stroke-width="2" />
    <line y1="19" x2="24" y2="19" stroke="black" stroke-width="2" />
  </svg>
  <svg id="toggle-close" width="20" height="20" viewBox="0 0 20 20" fill="none"
    xmlns="http://www.w3.org/2000/svg">
    <line y1="-0.75" x2="24.7577" y2="-0.75"
      transform="matrix(0.686589 -0.727046 0.686589 0.727046 2.00171 20)" stroke="black"
      stroke-width="1.5" />
    <line y1="-0.75" x2="24.7577" y2="-0.75"
      transform="matrix(0.686589 0.727046 -0.686589 0.727046 1 2)" stroke="black" stroke-width="1.5" />
  </svg>
  <svg aria-hidden="true" id="plus" viewBox="0 0 30 30" fill="none"
    xmlns="http://www.w3.org/2000/svg">
    <g id="plus">
      <line id="Line 4" x1="15" x2="15" y2="30" stroke="#D3D3D3" stroke-width="2" />
      <line id="Line 5" x1="30" y1="15" y2="15" stroke="#D3D3D3" stroke-width="2" />
    </g>
  </svg>
  <svg viewBox="0 0 40 40" fill="none" id="icon-range-toggle">
    <rect x="1" y="1" width="38" height="38" rx="19" fill="white"/>
    <path d="M16 11L8 20L16 29V11Z" fill="var(--toggle-color)"/>
    <path d="M32 20L24 11V29L32 20Z" fill="var(--toggle-color)"/>
    <rect x="1" y="1" width="38" height="38" rx="19" stroke="var(--toggle-color)" stroke-width="2"/>
  </svg>
  <svg aria-hidden="true" id="icon__present" width="78" height="81" viewBox="0 0 78 81" fill="none"
    xmlns="http://www.w3.org/2000/svg">
    <g id="icon_gift">
      <path id="Vector"
        d="M64.0156 35.6325H14.031C12.2766 35.6325 10.8494 34.2144 10.8494 32.4709V22.9989C10.8494 21.2554 12.2766 19.8367 14.031 19.8367H64.0149C65.7687 19.8367 67.1953 21.2554 67.1953 22.9989V32.4715C67.1959 34.2144 65.7693 35.6325 64.0156 35.6325ZM14.031 22.2598C13.6276 22.2598 13.2869 22.5984 13.2869 22.9989V32.4715C13.2869 32.8786 13.6208 33.21 14.031 33.21H64.0149C64.4244 33.21 64.7578 32.8786 64.7578 32.4715V22.9989C64.7578 22.5978 64.4171 22.2598 64.0149 22.2598H14.031Z"
        fill="white" />
      <path id="Vector_2"
        d="M57.0447 68.0821H20.999C17.6218 68.0821 14.8741 65.3512 14.8741 61.9933V34.421C14.8741 33.7523 15.4201 33.2095 16.0929 33.2095C16.7656 33.2095 17.3116 33.7523 17.3116 34.421V61.9933C17.3116 64.0148 18.9661 65.6589 20.999 65.6589H57.0447C59.077 65.6589 60.7308 64.0148 60.7308 61.9933V34.421C60.7308 33.7523 61.2768 33.2095 61.9496 33.2095C62.6223 33.2095 63.1683 33.7523 63.1683 34.421V61.9933C63.1683 65.3512 60.4213 68.0821 57.0447 68.0821Z"
        fill="white" />
      <path id="Vector_3"
        d="M39.0225 68.0821C38.3498 68.0821 37.8038 67.5399 37.8038 66.8705V34.421C37.8038 33.7523 38.3498 33.2095 39.0225 33.2095C39.6953 33.2095 40.2413 33.7523 40.2413 34.421V66.8699C40.2413 67.5399 39.6959 68.0821 39.0225 68.0821Z"
        fill="white" />
      <g id="Group">
        <path id="Vector_4"
          d="M23.8113 22.2556C19.9966 20.2008 18.5731 15.4442 20.6383 11.6513C22.7022 7.86033 27.4864 6.44461 31.303 8.4958C37.117 11.6265 40.2565 20.3607 40.3869 20.7308L38.0877 21.5347C38.0585 21.4523 35.1256 13.31 30.1433 10.627C27.5078 9.21063 24.2062 10.1884 22.7821 12.8047C21.3567 15.4236 22.339 18.7069 24.9734 20.1251L23.8113 22.2556Z"
          fill="white" />
        <path id="Vector_5"
          d="M54.2313 22.2556L53.071 20.1244C54.3477 19.4369 55.2782 18.2974 55.6926 16.9156C56.1063 15.5332 55.9534 14.0732 55.2617 12.8053C54.5719 11.5362 53.4263 10.6118 52.0363 10.2005C50.6457 9.78913 49.1783 9.94058 47.9023 10.6269C42.9201 13.3093 39.9871 21.4517 39.9579 21.5341L37.6587 20.7302C37.7891 20.3601 40.928 11.6259 46.7421 8.49578C48.5897 7.50109 50.7182 7.28179 52.7316 7.87788C54.7468 8.47337 56.4061 9.81397 57.4061 11.6513C58.4073 13.4881 58.6285 15.6029 58.0289 17.6062C57.4287 19.6089 56.0801 21.2597 54.2313 22.2556Z"
          fill="white" />
      </g>
      <path id="Vector_6"
        d="M61.9496 51.8567H16.0929C15.4201 51.8567 14.8741 51.3142 14.8741 50.6456C14.8741 49.9771 15.4201 49.4346 16.0929 49.4346H61.9496C62.6223 49.4346 63.1683 49.9771 63.1683 50.6456C63.1683 51.3142 62.6229 51.8567 61.9496 51.8567Z"
        fill="white" />
    </g>
  </svg>
  <svg aria-hidden="true" id="tick" width="26" height="26" viewBox="0 0 26 26" fill="none"
    xmlns="http://www.w3.org/2000/svg">
    <g id="tick">
      <path id="Vector"
        d="M11 17.718L5.3 11.2695L4.25 12.4574L11 20.0938L22.25 7.36648L21.2 6.09375L11 17.718Z"
        fill="#68B738" />
    </g>
  </svg>
  <svg viewBox="0 0 20 20" fill="none" id="icon__email" width="20" height="20">
    <path d="M1.5 8.5V16.5H18.5V8.5M1.5 3.5H18.5V5.5L10 11.5L1.5 5.5V3.5Z"
      stroke="var(--email-color)" stroke-linecap="round" stroke-linejoin="round" />
  </svg>

  <svg viewBox="0 0 20 20" fill="none" id="icon__phone" width="20" height="20">
    <path
      d="M10 10H18.5M18.5 10L16 7.5M18.5 10L16 12.5M8.5 2.5V7.5H5.5V12.5H8.5V17.5H6C4.5 17.5 3.5 16.5 3.5 15V5C3.5 3.5 4.5 2.5 6 2.5H8.5Z"
      stroke="var(--phone-color)" stroke-linecap="round" stroke-linejoin="round" />
  </svg>
</svg>
